<svg width="640" height="420" viewBox="0 0 640 420" fill="none" xmlns="http://www.w3.org/2000/svg">
  <rect width="640" height="420" rx="32" fill="#06141B"/>
  <rect x="28" y="28" width="584" height="364" rx="28" fill="#0D2230"/>
  <path d="M70 303C128.667 258.333 187.333 236 246 236C304.667 236 363.333 258.333 422 303C480.667 347.667 539.333 370 598 370H42C50.6667 370 60 347.667 70 303Z" fill="#123B2B"/>
  <path d="M92 279C136 244.333 180 227 224 227C268 227 312 244.333 356 279C400 313.667 444 331 488 331C532 331 566.667 315 592 283V370H92V279Z" fill="#1E6B4B"/>
  <rect x="96" y="82" width="206" height="114" rx="22" fill="#112B38" stroke="#2EC27E" stroke-width="2"/>
  <path d="M124 161L153 136L184 150L219 114L250 126L274 104" stroke="#7CF0B3" stroke-width="8" stroke-linecap="round" stroke-linejoin="round"/>
  <circle cx="154" cy="136" r="7" fill="#7CF0B3"/>
  <circle cx="219" cy="114" r="7" fill="#7CF0B3"/>
  <rect x="332" y="82" width="212" height="146" rx="22" fill="#112B38" stroke="#66D9FF" stroke-width="2"/>
  <rect x="356" y="108" width="70" height="48" rx="12" fill="#0E3A4D"/>
  <rect x="438" y="108" width="82" height="18" rx="9" fill="#1E5165"/>
  <rect x="438" y="138" width="60" height="14" rx="7" fill="#1E5165"/>
  <rect x="356" y="172" width="164" height="18" rx="9" fill="#1B6D77"/>
  <rect x="356" y="200" width="124" height="12" rx="6" fill="#1E5165"/>
  <path d="M381 154C394.807 154 406 142.807 406 129C406 115.193 394.807 104 381 104C367.193 104 356 115.193 356 129C356 142.807 367.193 154 381 154Z" fill="#7BE7FF" fill-opacity="0.9"/>
  <path d="M133 64C158.333 47.3333 183.667 39 209 39C234.333 39 259.667 47.3333 285 64" stroke="#1FA971" stroke-width="6" stroke-linecap="round"/>
  <path d="M392 54C420.667 38.6667 449.333 31 478 31C506.667 31 535.333 38.6667 564 54" stroke="#45C3E6" stroke-width="6" stroke-linecap="round"/>
  <text x="96" y="357" fill="#E6FFF3" font-family="Arial, sans-serif" font-size="34" font-weight="700">MYHUB</text>
  <text x="225" y="357" fill="#89A9B8" font-family="Arial, sans-serif" font-size="18">Smart agriculture operations overview</text>
</svg>
